#!OML:ASF G:\JayActor3\Patient Classification 1\Patient 1\Session 6\male.ASF
:FULLY-SPECIFIED
:DEGREES
1847
root 7.06421 16.3335 -0.495075 -187.352 -69.5241 182.222
lowerback 3.10962 -0.118447 2.12695
upperback -0.2883 -0.0647286 1.73007
thorax -2.03968 -0.0560793 0.586322
lowerneck -4.33997 -2.10068 -1.77841
upperneck 22.725 -0.115265 -21.0888
head 7.68604 -2.7382 -6.9571
rclavicle -1.51573e-014 1.59028e-014
rhumerus -27.4594 22.4836 -96.0021
rradius 120.824
rwrist -83.3007
rhand -22.7917 1.8366
rfingers 7.12502
rthumb 3.64425 -28.112
lclavicle -1.51573e-014 1.59028e-014
lhumerus -53.5214 -16.5283 92.6928
lradius 39.2541
lwrist 24.0326
lhand -8.8918 3.90445
lfingers 7.12502
lthumb 17.0506 33.1762
rfemur -11.0585 15.8872 12.96
rtibia 32.9244
rfoot -16.8243 -1.14504
rtoes 1.49238
lfemur 6.97406 9.5324 -16.4341
ltibia 16.6031
lfoot -18.8557 12.1694
ltoes -2.55887
1848
root 7.06772 16.3337 -0.501487 -187.348 -69.5603 182.211
lowerback 3.08163 -0.11301 2.13018
upperback -0.271208 -0.0588353 1.72727
thorax -2.00637 -0.0529089 0.581202
lowerneck -4.34967 -2.10725 -1.76078
upperneck 22.7129 -0.124648 -21.0869
head 7.68228 -2.7392 -6.95926
rclavicle 2.82274e-014 -7.15625e-015
rhumerus -27.4551 22.4749 -96.0024
rradius 120.819
rwrist -83.2971
rhand -22.8153 1.82705
rfingers 7.12502
rthumb 3.62143 -28.1219
lclavicle 2.82274e-014 -7.15625e-015
lhumerus -53.526 -16.5162 92.7187
lradius 39.2324
lwrist 24.0367
lhand -8.87745 3.89197
lfingers 7.12502
lthumb 17.0644 33.1625
rfemur -11.0439 15.8617 12.9775
rtibia 32.9218
rfoot -16.8319 -1.14333
rtoes 1.48999
lfemur 6.97773 9.48018 -16.4253
ltibia 16.5912
lfoot -18.8453 12.201
ltoes -2.56322
1849
root 7.07133 16.3338 -0.50804 -187.363 -69.5927 182.22
lowerback 3.04869 -0.106475 2.14098
upperback -0.249446 -0.0515447 1.72552
thorax -1.9655 -0.0490766 0.572833
lowerneck -4.36746 -2.1126 -1.75157
upperneck 22.7066 -0.131176 -21.0747
head 7.68261 -2.73933 -6.95673
rclavicle -3.8763e-014 -1.11319e-014
rhumerus -27.4421 22.461 -96.0005
rradius 120.813
rwrist -83.2959
rhand -22.8415 1.82087
rfingers 7.12502
rthumb 3.59617 -28.1285
lclavicle -3.8763e-014 -1.11319e-014
lhumerus -53.521 -16.5049 92.7388
lradius 39.2168
lwrist 24.0425
lhand -8.85478 3.89674
lfingers 7.12502
lthumb 17.0862 33.1654
rfemur -11.0293 15.8414 13.0045
rtibia 32.919
rfoot -16.8393 -1.14402
rtoes 1.49287
lfemur 6.98213 9.42648 -16.4085
ltibia 16.5806
lfoot -18.8398 12.2346
ltoes -2.5571
1850
root 7.07505 16.3341 -0.51462 -187.38 -69.6235 182.23
lowerback 3.01368 -0.0996609 2.15266
upperback -0.224988 -0.0440212 1.72365
thorax -1.92069 -0.0450998 0.56384
lowerneck -4.3822 -2.1191 -1.7422
upperneck 22.6945 -0.140014 -21.0655
head 7.68013 -2.74019 -6.95487
rclavicle 3.68249e-014 2.22639e-014
rhumerus -27.4214 22.4438 -95.9956
rradius 120.806
rwrist -83.296
rhand -22.864 1.81558
rfingers 7.12502
rthumb 3.57445 -28.1342
lclavicle 3.68249e-014 2.22639e-014
lhumerus -53.5104 -16.4959 92.7579
lradius 39.206
lwrist 24.0497
lhand -8.84186 3.90403
lfingers 7.12502
lthumb 17.0987 33.1716
rfemur -11.0162 15.8199 13.0325
rtibia 32.9161
rfoot -16.8454 -1.14613
rtoes 1.48746
lfemur 6.98636 9.36725 -16.3926
ltibia 16.5702
lfoot -18.8376 12.274
ltoes -2.54828
1851
root 7.0789 16.3345 -0.521293 -187.409 -69.6523 182.255
lowerback 2.97958 -0.0925546 2.16686
upperback -0.201074 -0.0359972 1.72441
thorax -1.87695 -0.0409136 0.556126
lowerneck -4.39527 -2.12627 -1.7318
upperneck 22.681 -0.149718 -21.0611
head 7.67676 -2.74174 -6.95489
rclavicle -3.80673e-014 2.38542e-015
rhumerus -27.4001 22.4235 -95.9875
rradius 120.8
rwrist -83.2989
rhand -22.8832 1.81311
rfingers 7.12502
rthumb 3.55591 -28.137
lclavicle -3.80673e-014 2.38542e-015
lhumerus -53.4972 -16.4862 92.7773
lradius 39.1993
lwrist 24.0568
lhand -8.82976 3.9183
lfingers 7.12502
lthumb 17.1103 33.1849
rfemur -11.0043 15.8018 13.0673
rtibia 32.9125
rfoot -16.8511 -1.15311
rtoes 1.47948
lfemur 6.98944 9.29986 -16.373
ltibia 16.5592
lfoot -18.8391 12.3204
ltoes -2.53074
1852
root 7.08279 16.3349 -0.528043 -187.432 -69.6845 182.273
lowerback 2.95218 -0.0866867 2.176
upperback -0.180402 -0.0294675 1.72536
thorax -1.8403 -0.0374641 0.551561
lowerneck -4.40184 -2.13221 -1.71846
upperneck 22.6659 -0.15824 -21.0635
head 7.67159 -2.74289 -6.95753
rclavicle 1.09332e-015 1.59028e-015
rhumerus -27.3844 22.4003 -95.9792
rradius 120.794
rwrist -83.3055
rhand -22.8932 1.81232
rfingers 7.12502
rthumb 3.54627 -28.1379
lclavicle 1.09332e-015 1.59028e-015
lhumerus -53.4881 -16.4777 92.8008
lradius 39.1976
lwrist 24.0644
lhand -8.81034 3.94168
lfingers 7.12502
lthumb 17.129 33.2066
rfemur -10.9901 15.7829 13.0999
rtibia 32.9091
rfoot -16.8578 -1.16235
rtoes 1.47788
lfemur 6.99457 9.22759 -16.3571
ltibia 16.5446
lfoot -18.8381 12.3694
ltoes -2.51167
1853
root 7.08671 16.3353 -0.534809 -187.437 -69.7236 182.27
lowerback 2.93838 -0.0830721 2.17383
upperback -0.167837 -0.0255753 1.72631
thorax -1.81963 -0.0353269 0.553501
lowerneck -4.40436 -2.13499 -1.70112
upperneck 22.657 -0.161904 -21.0723
head 7.66819 -2.74265 -6.96329
rclavicle -1.65985e-014 2.38542e-015
rhumerus -27.3836 22.3742 -95.9729
rradius 120.792
rwrist -83.3162
rhand -22.8919 1.809
rfingers 7.12502
rthumb 3.54748 -28.1412
lclavicle -1.65985e-014 2.38542e-015
lhumerus -53.4887 -16.4695 92.8313
lradius 39.1977
lwrist 24.0697
lhand -8.8034 3.95786
lfingers 7.12502
lthumb 17.1357 33.2222
rfemur -10.9726 15.7597 13.1248
rtibia 32.9053
rfoot -16.8669 -1.17324
rtoes 1.48197
lfemur 7.00128 9.15326 -16.3489
ltibia 16.5277
lfoot -18.8354 12.4134
ltoes -2.48723
1854
root 7.09082 16.3358 -0.541527 -187.432 -69.7687 182.256
lowerback 2.93531 -0.081306 2.1664
upperback -0.161769 -0.0237346 1.72637
thorax -1.81166 -0.0342526 0.557618
lowerneck -4.39994 -2.13609 -1.68406
upperneck 22.6506 -0.163845 -21.0814
head 7.6645 -2.74172 -6.96899
rclavicle 4.91992e-015 -3.97569e-014
rhumerus -27.3927 22.3434 -95.9698
rradius 120.791
rwrist -83.332
rhand -22.8812 1.8051
rfingers 7.12502
rthumb 3.55782 -28.145
lclavicle 4.91992e-015 -3.97569e-014
lhumerus -53.4965 -16.4597 92.8633
lradius 39.204
lwrist 24.0728
lhand -8.79087 3.98085
lfingers 7.12502
lthumb 17.1477 33.2442
rfemur -10.9544 15.7338 13.1448
rtibia 32.9008
rfoot -16.8758 -1.18389
rtoes 1.49988
lfemur 7.00604 9.07566 -16.3453
ltibia 16.509
lfoot -18.8273 12.4557
ltoes -2.46623
1855
root 7.09514 16.3363 -0.548152 -187.425 -69.8166 182.243
lowerback 2.94221 -0.0812541 2.15735
upperback -0.162854 -0.0236634 1.72745
thorax -1.81664 -0.0341509 0.563806
lowerneck -4.39557 -2.13349 -1.6713
upperneck 22.6545 -0.159698 -21.0871
head 7.66507 -2.73904 -6.97316
rclavicle 2.28105e-014 6.36111e-015
rhumerus -27.4122 22.3117 -95.9708
rradius 120.789
rwrist -83.3508
rhand -22.8657 1.79877
rfingers 7.12502
rthumb 3.57284 -28.151
lclavicle 2.28105e-014 6.36111e-015
lhumerus -53.5137 -16.4452 92.8973
lradius 39.2167
lwrist 24.0748
lhand -8.78571 4.00103
lfingers 7.12502
lthumb 17.1527 33.2639
rfemur -10.936 15.7079 13.1642
rtibia 32.8937
rfoot -16.8854 -1.19316
rtoes 1.54186
lfemur 7.00613 8.99886 -16.3415
ltibia 16.4941
lfoot -18.815 12.4956
ltoes -2.45547
1856
root 7.09973 16.3369 -0.554627 -187.427 -69.8629 182.239
lowerback 2.95567 -0.0807275 2.15262
upperback -0.167753 -0.0224827 1.72898
thorax -1.82921 -0.0336048 0.568022
lowerneck -4.394 -2.13112 -1.66104
upperneck 22.6664 -0.154812 -21.0906
head 7.66906 -2.73689 -6.97675
rclavicle 3.04141e-014 6.36111e-015
rhumerus -27.437 22.2759 -95.9751
rradius 120.787
rwrist -83.3683
rhand -22.8514 1.79263
rfingers 7.12502
rthumb 3.58657 -28.1569
lclavicle 3.04141e-014 6.36111e-015
lhumerus -53.5345 -16.4302 92.9312
lradius 39.2344
lwrist 24.0728
lhand -8.79953 4.0118
lfingers 7.12502
lthumb 17.1394 33.2758
rfemur -10.9194 15.6812 13.1861
rtibia 32.8831
rfoot -16.8903 -1.19942
rtoes 1.59615
lfemur 6.99895 8.92167 -16.3345
ltibia 16.4878
lfoot -18.804 12.536
ltoes -2.44992
1857
root 7.10466 16.3375 -0.560907 -187.453 -69.9049 182.264
lowerback 2.97273 -0.0792827 2.15846
upperback -0.174654 -0.0195662 1.73339
thorax -1.84586 -0.0323554 0.569206
lowerneck -4.39302 -2.13011 -1.6553
upperneck 22.6814 -0.15136 -21.0922
head 7.67413 -2.73597 -6.97921
rclavicle 6.78353e-014 1.59028e-015
rhumerus -27.4651 22.2398 -95.9811
rradius 120.785
rwrist -83.3795
rhand -22.842 1.78711
rfingers 7.12502
rthumb 3.59565 -28.1623
lclavicle 6.78353e-014 1.59028e-015
lhumerus -53.5551 -16.4174 92.9668
lradius 39.2555
lwrist 24.0748
lhand -8.81812 4.01876
lfingers 7.12502
lthumb 17.1215 33.2844
rfemur -10.9051 15.6548 13.2173
rtibia 32.8675
rfoot -16.8895 -1.20223
rtoes 1.65745
lfemur 6.9815 8.84379 -16.3179
ltibia 16.4954
lfoot -18.7993 12.5765
ltoes -2.43659
1858
root 7.10978 16.3381 -0.567002 -187.492 -69.9443 182.303
lowerback 2.99165 -0.0776747 2.16955
upperback -0.18181 -0.0161931 1.73932
thorax -1.86381 -0.0309559 0.569008
lowerneck -4.39305 -2.12935 -1.6497
upperneck 22.6969 -0.147892 -21.0958
head 7.67958 -2.73538 -6.98246
rclavicle -4.47266e-016 -1.51076e-014
rhumerus -27.495 22.2071 -95.9883
rradius 120.783
rwrist -83.3803
rhand -22.8405 1.7872
rfingers 7.12502
rthumb 3.59718 -28.1622
lclavicle -4.47266e-016 -1.51076e-014
lhumerus -53.5747 -16.4077 93.0043
lradius 39.2781
lwrist 24.082
lhand -8.83796 4.016
lfingers 7.12502
lthumb 17.1024 33.2833
rfemur -10.892 15.6232 13.2525
rtibia 32.8488
rfoot -16.882 -1.19989
rtoes 1.71349
lfemur 6.95765 8.77104 -16.295
ltibia 16.5142
lfoot -18.7998 12.6105
ltoes -2.41892
1859
root 7.11508 16.3388 -0.573054 -187.563 -69.979 182.377
lowerback 3.00926 -0.0751016 2.19141
upperback -0.188206 -0.0112565 1.74878
thorax -1.88025 -0.028906 0.566318
lowerneck -4.39356 -2.12996 -1.64616
upperneck 22.7109 -0.146348 -21.0986
head 7.68448 -2.73568 -6.98509
rclavicle -3.71727e-014 -2.38542e-014
rhumerus -27.5268 22.1766 -95.9963
rradius 120.782
rwrist -83.3704
rhand -22.8468 1.78938
rfingers 7.12502
rthumb 3.59104 -28.1601
lclavicle -3.71727e-014 -2.38542e-014
lhumerus -53.5902 -16.3994 93.0412
lradius 39.3001
lwrist 24.0897
lhand -8.85521 4.00493
lfingers 7.12502
lthumb 17.0858 33.2736
rfemur -10.8828 15.5926 13.3007
rtibia 32.8286
rfoot -16.871 -1.19757
rtoes 1.76615
lfemur 6.92814 8.70719 -16.2564
ltibia 16.5395
lfoot -18.8032 12.6362
ltoes -2.39463
1860
root 7.12023 16.3393 -0.579123 -187.628 -70.0164 182.442
lowerback 3.02881 -0.0729514 2.21067
upperback -0.194018 -0.00690436 1.75646
thorax -1.89717 -0.0271171 0.563285
lowerneck -4.39391 -2.13153 -1.64055
upperneck 22.7256 -0.146014 -21.1038
head 7.68934 -2.73663 -6.98904
rclavicle 2.83268e-015 -1.27222e-014
rhumerus -27.5637 22.1484 -96.0065
rradius 120.783
rwrist -83.3527
rhand -22.854 1.79416
rfingers 7.12502
rthumb 3.58414 -28.1555
lclavicle 2.83268e-015 -1.27222e-014
lhumerus -53.6085 -16.3963 93.0808
lradius 39.3231
lwrist 24.1007
lhand -8.86861 3.993
lfingers 7.12502
lthumb 17.0729 33.2628
rfemur -10.8702 15.5568 13.3455
rtibia 32.8115
rfoot -16.8605 -1.19135
rtoes 1.81251
lfemur 6.90542 8.65628 -16.217
ltibia 16.5604
lfoot -18.8021 12.6478
ltoes -2.37147
